<svg width="512" height="512" viewBox="0 0 512 512" fill="none" xmlns="http://www.w3.org/2000/svg">
  <rect width="512" height="512" rx="128" fill="#3b82f6"/>
  <path d="M256 140c-30.9 0-56 25.1-56 56s25.1 56 56 56 56-25.1 56-56-25.1-56-56-56z" fill="#ffffff"/>
  <path d="M336 280c-8.8-17.6-26.4-30.4-47.2-33.6-13.6 8.8-29.6 14.4-46.8 14.4s-33.2-5.6-46.8-14.4c-20.8 3.2-38.4 16-47.2 33.6-8.8 17.6-8.8 38.4-1.6 56.8 7.2 18.4 20.8 33.6 38.4 43.2 17.6 9.6 37.6 12.8 57.2 8.8 19.6-4 36.8-14.4 49.6-29.6 12.8-15.2 20.8-34.4 22.4-54.4 1.6-20-2.4-40-22.4-52.8l44 28z" fill="#ffffff"/>
  <path d="M380 200c0-8.8-7.2-16-16-16h-48c-8.8 0-16 7.2-16 16v16h80v-16z" fill="#ffffff"/>
  <path d="M212 200c0-8.8-7.2-16-16-16h-48c-8.8 0-16 7.2-16 16v16h80v-16z" fill="#ffffff"/>
  <circle cx="380" cy="180" r="24" fill="#ef4444"/>
  <path d="M380 168v24m-12-12h24" stroke="#ffffff" stroke-width="3" stroke-linecap="round"/>
</svg>
